<svg t="1717542617347" class="icon" viewBox="0 0 1024 1024" version="1.1" xmlns="http://www.w3.org/2000/svg" p-id="8248" width="40" height="40"><path d="M391.6 496.1l89.6 0 0 180.2-89.6 0 0-180.2Z" p-id="8249" fill="#2c2c2c"></path><path d="M540.9 496.1l90.6 0 0 180.2-90.6 0 0-180.2Z" p-id="8250" fill="#2c2c2c"></path><path d="M512 16c-273.5 0-496 222.5-496 496s222.5 496 496 496 496-222.5 496-496S785.5 16 512 16zM751 496.1l-61.6 0 0 180.2 61.6 0 0 59.8L273 736.1l0-59.8 58.8 0L331.8 496.1 273 496.1l0-57.9 478 0L751 496.1zM751 407.4 273 407.4l0-31.7 238.1-87.8 239.9 87.8L751 407.4z" p-id="8251" fill="#2c2c2c"></path></svg>